<svg width="26" height="26" viewBox="0 0 26 26" fill="none" xmlns="http://www.w3.org/2000/svg">
<path d="M13 18.3332C14.4144 18.3332 15.771 17.7713 16.7712 16.7711C17.7714 15.7709 18.3333 14.4143 18.3333 12.9998C18.3333 11.5853 17.7714 10.2288 16.7712 9.2286C15.771 8.22841 14.4144 7.6665 13 7.6665C11.5855 7.6665 10.2289 8.22841 9.22872 9.2286C8.22853 10.2288 7.66663 11.5853 7.66663 12.9998C7.66663 14.4143 8.22853 15.7709 9.22872 16.7711C10.2289 17.7713 11.5855 18.3332 13 18.3332V18.3332Z" stroke="#191616" stroke-width="1.5" stroke-linecap="round" stroke-linejoin="round"/>
<path d="M1 18.3333V7.66667C1 5.89856 1.70238 4.20286 2.95262 2.95262C4.20286 1.70238 5.89856 1 7.66667 1H18.3333C20.1014 1 21.7971 1.70238 23.0474 2.95262C24.2976 4.20286 25 5.89856 25 7.66667V18.3333C25 20.1014 24.2976 21.7971 23.0474 23.0474C21.7971 24.2976 20.1014 25 18.3333 25H7.66667C5.89856 25 4.20286 24.2976 2.95262 23.0474C1.70238 21.7971 1 20.1014 1 18.3333Z" stroke="#191616" stroke-width="1.5"/>
<path d="M20.3334 5.68019L20.3467 5.66553" stroke="#191616" stroke-width="1.5" stroke-linecap="round" stroke-linejoin="round"/>
</svg>
