<svg width="194" height="81" viewBox="0 0 194 81" fill="none" xmlns="http://www.w3.org/2000/svg">
<path d="M76.7728 9.13432C75.3892 9.52756 74.2677 10.4306 74.0201 11.3772C73.8745 11.8724 73.9618 18.8634 74.2968 36.0931C74.3842 40.2585 74.3988 46.5795 74.3551 50.1478C74.2531 57.0076 74.2823 57.5319 74.9085 58.8136C75.4911 59.9933 76.2776 60.5759 77.6466 60.8526C78.4186 61.0128 78.4331 61.0274 78.6079 61.6973C79.1759 63.9111 80.5595 65.12 82.3801 64.9743C83.5744 64.8724 84.2735 64.3335 84.958 62.9645C86.0358 60.8089 86.1814 58.6097 85.8901 48.735L85.759 44.3511L86.9096 44.2492C92.5898 43.754 97.396 41.1032 100.207 36.8941C101.736 34.6075 102.406 32.3063 102.406 29.3643C102.406 25.6504 101.474 22.4608 99.5661 19.5625C98.8961 18.5429 96.9154 16.4894 96.2309 16.0961C96.0124 15.965 95.4007 15.3242 94.8909 14.6979C92.7208 12.0035 90.2886 10.4597 86.9679 9.65864C85.8173 9.38192 85.191 9.32366 83.3268 9.32366C82.0888 9.32366 80.778 9.39648 80.4285 9.48387C79.875 9.61495 79.7002 9.60039 79.2633 9.38192C78.5351 9.01781 77.5447 8.91586 76.7728 9.13432ZM78.7098 10.1247C78.8846 10.2121 79.1031 10.3723 79.1759 10.4888C79.2924 10.6345 79.4381 10.649 79.8313 10.5179C80.108 10.4306 81.3897 10.3286 82.6714 10.2849C84.5502 10.2121 85.2638 10.2558 86.2397 10.4451C88.8176 10.9694 90.9731 12.0909 92.8373 13.8678C95.5463 16.4602 96.9445 19.577 97.3378 23.9755C97.498 25.6067 97.4834 26.0436 97.2649 27.2962C96.8134 29.976 95.692 32.1753 93.7403 34.258C90.7838 37.3748 86.5455 39.2099 82.1762 39.2244H80.6615L80.7489 41.6567C80.9819 47.4825 81.0256 54.0219 80.8654 55.3618C80.5595 57.8523 79.8167 59.3962 78.7098 59.8477C77.5593 60.3283 76.1902 59.5418 75.5785 58.0417L75.2435 57.2115L75.2872 48.9826C75.3163 44.1909 75.2435 35.9474 75.0979 29.2478C74.9668 22.9123 74.8794 16.3583 74.9085 14.6688L74.9522 11.5957L75.3746 11.0568C75.6076 10.751 76.0591 10.3723 76.3941 10.2267C77.0641 9.9208 78.2292 9.86255 78.7098 10.1247Z" fill="#973240"/>
<path d="M81.6811 15.0329C81.3752 15.0912 80.9965 15.2805 80.8363 15.4407C80.5596 15.7175 80.545 15.9505 80.5596 23.5094C80.5596 32.117 80.647 34.7095 80.9237 34.7095C81.55 34.7095 83.7929 34.1997 84.8124 33.8356C88.2496 32.5831 90.9149 29.8886 91.7014 26.8447C92.0072 25.6941 91.9344 22.8832 91.5557 21.5287C90.6964 18.3973 88.4389 16.0524 85.5115 15.266C84.5357 15.0038 82.4384 14.8727 81.6811 15.0329ZM89.3419 20.247C90.3469 20.5237 90.4925 20.7422 90.8421 22.5773C91.4392 25.7087 90.7401 28.1555 88.6429 30.2819C87.7981 31.1266 85.861 32.5102 85.73 32.35C85.7154 32.3209 85.6426 29.5828 85.5843 26.233C85.4969 20.4218 85.4969 20.1742 85.7591 20.1014C86.4145 19.9266 88.5263 20.014 89.3419 20.247Z" fill="#973240"/>
<path d="M41.8764 9.33822C41.556 9.4693 41.0754 9.76059 40.8278 9.96449C40.3909 10.3432 40.3617 10.3577 39.4879 10.1684C38.2936 9.9208 38.1188 10.081 37.9732 11.552C37.7547 13.9406 36.7643 17.4069 35.4535 20.3198C35.2059 20.8878 34.9875 21.1645 34.7544 21.2228C34.3758 21.3247 34.1282 21.8345 34.3612 22.0675C34.5651 22.2714 33.8223 23.6405 33.5019 23.6405C33.1669 23.6405 32.9339 23.9755 32.963 24.3833C33.0067 24.9076 31.7105 26.699 31.3609 26.5971C31.0114 26.5097 30.691 26.9029 30.7929 27.2816C30.8949 27.6748 29.5404 29.175 29.0889 29.175C28.6811 29.175 28.4189 29.4371 28.4189 29.8449C28.4189 30.311 26.5838 31.9422 26.0595 31.9422C25.7973 31.9422 25.608 32.0587 25.4915 32.2626C25.3895 32.452 25.3458 32.6267 25.3749 32.6704C25.4041 32.6996 24.9089 33.1074 24.2681 33.5734C23.4816 34.1269 22.9281 34.4182 22.5931 34.4473C22.1999 34.4764 22.0397 34.5784 21.894 34.8988C21.6756 35.3357 20.3357 36.1076 20.19 35.8746C20.0298 35.627 19.4327 35.7144 19.2288 36.0203C19.0686 36.2387 18.6899 36.3552 17.4956 36.53C15.0488 36.8941 13.2282 37.4039 11.6261 38.1758C9.19387 39.3555 8.39283 40.2876 7.94133 42.4869C7.7083 43.5355 7.60635 46.7688 7.79568 47.0601C7.83938 47.1475 8.30544 47.3514 8.82976 47.5262C9.84927 47.8611 9.8784 47.8903 9.61624 48.9243C9.47059 49.4923 9.39777 49.5652 9.03366 49.5652C8.65498 49.5652 8.53847 49.7254 7.35875 51.9829C6.1499 54.3132 6.10621 54.4297 6.16447 55.187C6.20816 55.7551 6.32468 56.0755 6.57227 56.3376C6.76161 56.5415 7.94133 57.2406 9.1793 57.896C12.8058 59.804 13.068 59.702 15.0196 55.9153C16.1411 53.7306 16.2431 53.483 16.0683 53.1917C15.8352 52.813 15.8789 52.7693 17.0295 52.3324C17.8014 52.0411 18.5734 51.9683 19.0103 52.1285C19.3744 52.2742 19.287 52.4198 18.6171 52.813C16.5343 54.0365 15.2964 56.6726 15.6168 59.1631C15.9081 61.5226 17.248 63.3868 19.3598 64.3918C20.3793 64.8724 20.6124 64.9306 21.9377 64.9743C23.5835 65.0326 24.5593 64.7704 25.8119 63.9694C27.5887 62.8334 28.8558 60.5468 28.8558 58.4932C28.8558 57.8815 28.8704 57.8669 29.351 57.8669C30.1521 57.8669 30.254 57.6484 30.4288 55.5803C30.6473 53.3082 30.6473 52.6674 30.4579 52.5509C30.3705 52.5072 30.4725 52.2159 30.7055 51.8955L31.0842 51.3129H37.813H44.5417L44.935 51.8955C45.2991 52.4635 45.3137 52.5363 45.3137 54.7938C45.3137 57.4882 45.2554 57.3863 46.8575 57.2115L47.775 57.1241L47.6877 57.9252C47.4546 60.2409 48.8528 62.9644 50.9064 64.115C52.2172 64.8433 53.0474 65.0472 54.6349 64.9743C55.9166 64.9306 56.1496 64.8724 57.1691 64.3772C58.6255 63.649 59.6159 62.6586 60.2859 61.2313C61.5384 58.6097 60.8685 55.3327 58.6692 53.4102L57.9993 52.813L58.3488 51.9537C58.5236 51.4877 58.7712 50.7158 58.8731 50.2497C58.9751 49.7982 59.0916 49.4195 59.1499 49.4195C59.1935 49.4195 59.3538 49.3321 59.4848 49.2302C59.7033 49.0845 59.7761 48.4291 60.0237 44.5696C60.1694 42.1082 60.3296 40.04 60.3733 39.9818C60.6354 39.5594 60.9122 37.3019 60.9122 35.6561C60.9122 33.5589 60.7083 32.2189 60.0383 30.1654C59.3975 28.1555 59.2955 27.034 59.1499 20.8732C59.0188 15.3533 58.9168 14.3047 58.5382 13.9551C58.3197 13.7512 56.1933 12.8191 53.426 11.7122C50.8627 10.6782 47.4983 9.57125 46.1584 9.30909C44.6583 9.00324 42.6484 9.01781 41.8764 9.33822ZM45.168 10.6345C45.168 11.3335 44.7311 14.9164 44.4252 16.7224C42.9979 25.2134 39.9248 30.0488 33.0213 34.6803C30.356 36.4572 24.7195 39.0351 21.763 39.8216C19.5346 40.4187 17.1169 40.3459 15.7333 39.6468C15.1362 39.3409 14.2914 38.671 14.2914 38.4962C14.2914 38.2632 19.1122 37.3893 19.4181 37.5641C19.4618 37.5932 19.5492 37.8845 19.6074 38.1904C19.7239 38.904 20.1754 39.3555 20.525 39.1225C20.7143 39.006 20.7726 38.7584 20.7726 38.0593V37.1563L21.7775 36.7048L22.7679 36.2533L23.4233 36.9378C23.7874 37.3165 24.1224 37.6223 24.1952 37.6223C24.8506 37.6223 24.9671 36.9378 24.4137 36.2824C24.2098 36.0494 24.0496 35.8018 24.0496 35.7581C24.0496 35.6998 24.6613 35.3357 25.4041 34.9571L26.744 34.258L27.3557 34.9279C27.6907 35.292 28.0402 35.5833 28.1131 35.5833C28.7976 35.5833 28.8995 34.9279 28.317 34.2143C28.1131 33.9375 27.9383 33.6754 27.9529 33.6171C27.9529 33.5589 28.4772 33.1656 29.1034 32.7433L30.2395 31.9568L30.924 32.6267C31.4774 33.1802 31.6668 33.2821 31.9726 33.1948C32.5552 33.0491 32.4824 32.452 31.8124 31.7529L31.259 31.1994L32.2057 30.3401L33.1524 29.4954L33.8223 30.0634C34.536 30.6605 35.0312 30.7771 35.1768 30.3984C35.3516 29.9469 35.2496 29.7139 34.6525 29.175L34.0408 28.6361L34.8273 27.6603C35.2496 27.136 35.6283 26.699 35.6574 26.699C35.6866 26.699 36.0361 26.9612 36.4439 27.2816C37.3032 27.9516 37.6819 28.0098 37.9149 27.5001C38.1043 27.0777 37.9295 26.8301 36.9974 26.1747C36.6915 25.9562 36.4293 25.7378 36.4293 25.6649C36.4293 25.6067 36.6769 25.1406 36.9682 24.6309C37.2595 24.1211 37.5217 23.6987 37.5217 23.6696C37.5362 23.6551 38.046 23.8735 38.6577 24.1502C39.9102 24.7328 40.3617 24.6891 40.3617 23.99C40.3617 23.6842 40.2015 23.5531 39.2403 23.1162C38.6286 22.8394 38.1043 22.5919 38.0751 22.5773C38.0606 22.5482 38.2936 21.8054 38.614 20.9315C39.2548 19.0964 39.8957 16.5185 40.3617 13.926C40.9006 10.9694 41.5852 10.2558 43.9737 10.2412H45.168V10.6345ZM49.0421 11.3481C51.0957 12.0181 53.6445 13.0085 56.1059 14.1008C57.5041 14.6979 57.6643 14.8144 57.7517 15.2077C57.8245 15.6155 57.8682 16.6641 58.0575 24.2376L58.1303 27.2379L56.7176 27.5729C52.2172 28.5924 48.4887 30.7625 46.1147 33.7336C44.6874 35.5105 43.4057 38.1904 43.1872 39.8653L43.0999 40.4915L40.9589 41.3217C39.7937 41.7878 37.8567 42.6471 36.6478 43.2588C33.8806 44.6424 32.395 45.2395 30.7929 45.6036C27.0644 46.4629 20.8891 46.361 14.8012 45.3269C12.8932 45.0065 9.20843 44.1035 9.0191 43.9142C8.85889 43.754 9.23756 41.8752 9.54341 41.2926C9.8347 40.71 10.7523 39.9526 11.8009 39.3846C12.8495 38.8312 13.0243 38.8166 13.403 39.3555C13.8545 39.9818 15.107 40.7537 16.2431 41.1032C17.4519 41.4819 19.4618 41.511 21.0056 41.1906C25.3895 40.2585 31.9872 37.1563 35.8905 34.1706C37.4343 32.9909 39.7792 30.6314 40.9152 29.1022C43.8426 25.1552 45.6049 19.4314 46.2749 11.6685C46.3914 10.3432 46.1001 10.3723 49.0421 11.3481ZM39.6335 11.7996C39.5607 12.0326 39.2694 13.3726 38.9781 14.7853C38.7014 16.2126 38.2936 17.9749 38.0897 18.7177C37.7256 19.9557 37.0556 21.8928 36.9391 22.0093C36.8954 22.053 36.3274 21.8054 36.1672 21.6743C36.1526 21.6597 36.4585 20.8732 36.8663 19.9411C37.7838 17.7856 38.5266 15.3679 38.9344 13.1395C39.1966 11.7122 39.2985 11.4064 39.517 11.4064C39.7209 11.4064 39.7355 11.4646 39.6335 11.7996ZM35.9779 23.9755C35.3661 24.995 35.3661 25.0095 34.9875 24.6017L34.6671 24.2522L35.1185 23.5094L35.5846 22.7666L35.9924 22.9851L36.4148 23.2036L35.9779 23.9755ZM34.5505 26.1019C34.2884 26.5825 33.196 27.7185 32.9921 27.7185C32.5406 27.7185 32.6426 27.267 33.298 26.3495C33.968 25.4028 33.9825 25.4028 34.3321 25.6213C34.5797 25.796 34.6379 25.9125 34.5505 26.1019ZM32.1183 28.5778C32.2202 28.738 30.6327 30.1945 30.3414 30.1945C30.2395 30.1945 30.5016 29.8012 30.924 29.3206C31.6668 28.4759 31.9581 28.3011 32.1183 28.5778ZM58.611 29.4226C58.7421 29.976 59.0188 30.9664 59.2372 31.6509C59.5868 32.7433 59.6305 33.1365 59.645 35.0736L59.6596 37.2437L57.1108 37.5058C53.0911 37.8991 49.3917 38.5836 46.1147 39.5303C45.3137 39.7633 44.5854 39.9526 44.4835 39.9526C44.265 39.9526 44.6291 38.569 45.1826 37.3602C46.7118 33.9812 49.8286 31.214 53.863 29.6702C54.7223 29.3352 57.7808 28.4904 58.2032 28.4613C58.2906 28.4468 58.4653 28.8837 58.611 29.4226ZM59.412 39.0788C59.2809 39.6031 59.2227 39.6468 58.6547 39.7196C58.3342 39.7633 56.9069 39.9381 55.5087 40.0983C48.3285 40.943 42.2551 42.7781 35.7011 46.0988C31.9726 47.9922 30.254 48.4 25.506 48.502C23.7146 48.5457 21.5008 48.502 20.3357 48.4146C16.8548 48.1233 12.4126 47.3659 9.67449 46.5795C8.90258 46.361 8.90258 46.3464 8.90258 45.7639C8.90258 45.2541 8.94627 45.1813 9.15018 45.2541C9.77645 45.5017 12.9078 46.2299 14.4371 46.4921C18.2384 47.1475 20.2046 47.3077 24.2681 47.2931C30.2686 47.2931 31.725 46.9581 37.0119 44.3948C38.8907 43.4918 40.9298 42.5451 41.5269 42.3121C45.5467 40.7391 51.1394 39.3701 55.5087 38.8749C58.0721 38.5836 58.3925 38.5545 59.0188 38.5253L59.5577 38.4962L59.412 39.0788ZM59.0042 41.3654C59.0042 42.1082 58.6984 47.4533 58.6255 47.7883L58.5673 48.1087L53.4406 48.0796L48.2994 48.0359L48.0372 45.4289C47.8187 43.3753 47.7896 42.8073 47.9352 42.7199C48.5906 42.3121 56.1641 41.0595 58.3925 40.9867C58.9605 40.9722 59.0042 41.0013 59.0042 41.3654ZM46.7555 44.6424C46.8429 45.4726 46.9594 46.5795 47.0177 47.1183L47.1051 48.1087H46.7264C46.2895 48.1087 46.3186 48.167 45.838 45.8512C45.3137 43.4044 45.3137 43.419 45.7506 43.2879C46.5662 43.0549 46.5662 43.0549 46.7555 44.6424ZM44.6291 45.8221C44.8476 46.8853 45.0224 47.832 45.0224 47.934C45.0224 48.065 43.799 48.1087 39.75 48.0942H34.4632L36.6478 46.9873C39.5316 45.5308 43.3911 43.8996 44.0029 43.885C44.1631 43.885 44.3233 44.3657 44.6291 45.8221ZM12.8495 48.5311C14.4371 48.8952 17.7723 49.3613 20.1172 49.5797C22.5058 49.7836 27.0062 49.7982 28.5646 49.5797C29.4093 49.4778 34.2156 49.4195 43.8135 49.4195H57.8391L57.7517 49.8128C57.5769 50.5992 57.0817 52.0411 56.9652 52.1139C56.8924 52.1576 56.5283 52.1139 56.1641 52.0266C55.5816 51.8809 55.4214 51.7498 54.9116 51.0071C54.5912 50.541 54.2271 50.1041 54.0814 50.0312C53.9504 49.9584 53.2076 49.9584 52.4502 50.0167C51.6929 50.0749 50.7899 50.1332 50.4403 50.1332C49.9014 50.1477 49.7412 50.2351 49.2752 50.7303C48.7363 51.3129 48.7217 51.3129 47.4109 51.4003L46.071 51.5022L45.6778 50.8905C45.4593 50.5556 45.1389 50.2497 44.9641 50.2206C44.7893 50.1769 41.4541 50.1623 37.5217 50.1769L30.3997 50.2206L29.8317 51.0216C29.5258 51.4585 29.22 51.8955 29.1763 51.9974C29.0889 52.1431 28.7539 52.1285 27.647 51.9392C26.3653 51.7061 26.2342 51.6624 26.2342 51.3712C26.2342 51.1964 26.1469 50.9925 26.0595 50.9051C25.8264 50.7303 21.8067 50.1186 21.5445 50.2351C21.4426 50.2643 21.1367 50.5992 20.8745 50.9488L20.3939 51.5896L19.7094 51.211C19.1268 50.9051 18.8938 50.8614 18.049 50.9197C17.0732 50.9779 15.6605 51.5168 14.7284 52.1868L14.306 52.4926L13.4612 52.1576C12.4563 51.7353 10.5047 50.6284 10.5047 50.4536C10.5047 50.3808 10.6066 49.8565 10.7377 49.2884C11.0144 48.0796 10.927 48.1087 12.8495 48.5311ZM12.4709 53.0024C13.1991 53.3374 13.9564 53.6723 14.1895 53.716C14.4079 53.7743 14.5827 53.8762 14.5827 53.9491C14.5827 54.1675 12.9806 57.328 12.7185 57.6047C12.6019 57.7504 12.3398 57.8669 12.1359 57.8669C11.7572 57.8669 7.60635 55.7696 7.41701 55.4783C7.16941 55.1142 7.34419 54.5608 8.24718 52.8567L9.20843 51.0507L10.1842 51.7207C10.7231 52.0848 11.7572 52.6528 12.4709 53.0024ZM53.761 51.444C53.8921 51.7061 53.8338 51.7498 53.0911 51.8955C52.6396 51.9974 52.057 52.1576 51.7803 52.2742C51.0957 52.5654 51.052 52.5509 50.8044 51.9246L50.586 51.3857L51.2705 51.2983C51.6346 51.2546 52.3191 51.1964 52.7706 51.1964C53.4552 51.1673 53.6299 51.211 53.761 51.444ZM23.569 51.6188C24.1952 51.7061 24.7632 51.8372 24.8361 51.91C25.1274 52.1722 24.7632 52.2013 23.8748 51.9829C23.3505 51.8518 22.6951 51.7498 22.3892 51.7498C22.0688 51.7498 21.8795 51.6916 21.9377 51.6042C22.0543 51.4149 22.1853 51.4149 23.569 51.6188ZM49.9014 52.8859C49.9743 53.2354 49.8869 53.4102 49.4499 53.8762C49.1587 54.1821 48.7363 54.7938 48.4887 55.2016L48.0518 55.9735H47.2653H46.4788V54.2986V52.6383L47.3964 52.58C49.8578 52.4489 49.7995 52.4344 49.9014 52.8859ZM24.0496 53.2791C25.4769 53.7743 26.846 55.1725 27.3557 56.6289C27.7198 57.6776 27.6761 59.3233 27.2683 60.372C26.8314 61.4789 25.7099 62.7023 24.5739 63.2994C23.7437 63.7364 23.5835 63.7655 22.1562 63.7655C20.6852 63.7655 20.5833 63.7509 19.7094 63.2703C18.6171 62.6732 17.7432 61.7702 17.2334 60.6633C16.8839 59.935 16.8402 59.6438 16.8402 58.3767C16.8402 57.1095 16.8839 56.8183 17.2334 56.09C17.8888 54.6773 19.389 53.4539 20.9474 53.0606C21.6756 52.8859 23.234 52.9878 24.0496 53.2791ZM27.6179 53.1335C29.6278 53.5121 29.4821 53.4102 29.3802 54.1967C29.3365 54.5753 29.2636 55.289 29.2054 55.7842C29.1326 56.5561 29.0743 56.7017 28.8413 56.7017C28.6956 56.7017 28.5646 56.6289 28.5646 56.5415C28.5646 56.0609 27.6179 54.5025 26.8751 53.7452C26.409 53.2937 26.1323 52.915 26.2488 52.915C26.3508 52.915 26.977 53.0169 27.6179 53.1335ZM56.6156 53.4976C57.7662 54.0656 58.7129 54.9977 59.2518 56.09C59.6159 56.8328 59.6596 57.0804 59.6596 58.3767C59.6596 59.6583 59.6159 59.935 59.2664 60.6633C58.7712 61.741 57.6352 62.8771 56.5574 63.3722C55.8292 63.7218 55.5524 63.7655 54.2708 63.7655C52.9745 63.7655 52.7269 63.7218 51.9987 63.3722C49.3189 62.0469 48.0955 58.8136 49.3043 56.1774C50.586 53.3811 53.9067 52.1576 56.6156 53.4976Z" fill="#973240"/>
<path d="M41.6872 14.1154C41.5124 14.3338 41.3813 14.6688 41.3813 14.8582C41.3813 15.3242 41.9931 15.9214 42.4737 15.9214C42.9543 15.9214 43.566 15.3242 43.566 14.8582C43.566 14.2756 43.0417 13.7367 42.4737 13.7367C42.1241 13.7367 41.9057 13.8386 41.6872 14.1154Z" fill="#973240"/>
<path d="M40.3763 18.9216C40.0268 19.3586 39.9976 19.5479 40.2307 20.0576C40.7259 21.1209 42.2551 20.6985 42.2551 19.5042C42.2551 18.5866 40.9589 18.1934 40.3763 18.9216Z" fill="#973240"/>
<path d="M21.0201 54.153C18.4859 54.8666 17.1605 57.4445 18.0344 59.9933C18.3985 61.0565 19.6365 62.2362 20.7579 62.5858C22.36 63.0955 24.166 62.6877 25.2875 61.5808C27.4284 59.4253 26.8459 55.7696 24.1514 54.4588C23.1756 53.9782 22.025 53.8762 21.0201 54.153ZM23.1319 55.3181C23.9621 55.5657 24.8505 56.3376 25.171 57.1095C25.2875 57.4008 25.3894 57.9543 25.3894 58.3621C25.404 60.9691 22.6659 62.4984 20.4521 61.1293C18.3985 59.8622 18.5005 56.6872 20.6269 55.5803C21.6027 55.0705 22.0979 55.0123 23.1319 55.3181Z" fill="#973240"/>
<path d="M21.5154 57.5902C20.7435 58.1873 21.1804 59.469 22.1562 59.469C22.6514 59.469 23.3214 58.9155 23.3214 58.5223C23.3214 58.0999 22.899 57.4737 22.564 57.3717C22.0397 57.2406 21.9378 57.2552 21.5154 57.5902Z" fill="#973240"/>
<path d="M53.2805 54.0802C51.9988 54.4152 50.8919 55.3036 50.2511 56.5561C49.785 57.4591 49.7704 59.236 50.2219 60.2264C51.5327 63.1101 55.5379 63.7073 57.6352 61.3187C59.048 59.7166 59.0771 57.2698 57.708 55.5512C56.8196 54.4297 54.6932 53.7306 53.2805 54.0802ZM55.7855 55.5366C57.2711 56.2794 57.9556 58.2019 57.2711 59.6875C55.7855 62.9208 51.0958 61.9158 51.0812 58.3621C51.0812 55.9444 53.6154 54.4152 55.7855 55.5366Z" fill="#973240"/>
<path d="M53.7902 57.43C53.4698 57.5611 53.1785 58.0999 53.1785 58.5369C53.1785 58.9155 53.863 59.469 54.3436 59.469C55.3194 59.469 55.7564 58.1873 54.9845 57.5902C54.5621 57.2552 54.3145 57.2261 53.7902 57.43Z" fill="#973240"/>
<path d="M139.91 12.2803C138.512 12.5279 137.638 13.1978 136.618 14.7853C135.191 17.0137 134.302 19.6207 133.225 24.6746C132.263 29.1896 130.312 37.4767 130.224 37.4767C130.093 37.4767 127.53 26.9175 126.933 24.0046C126.205 20.3635 125.768 19.2129 124.646 18.0041C123.976 17.2759 123.539 17.0137 122.753 16.8681C122.243 16.7661 122.17 16.6787 121.617 15.5573C120.699 13.6639 119.505 12.7172 118.034 12.7172C116.577 12.7172 114.699 14.0717 114.378 15.3534C114.116 16.4166 114.276 17.2322 115.82 22.6793C116.301 24.3396 116.854 26.3349 117.044 27.1214C117.524 29.0439 119.388 37.768 120.524 43.4627C121.049 46.0552 121.704 49.0263 121.995 50.075C122.287 51.109 122.724 52.915 122.971 54.0802C123.627 57.2261 124.355 58.901 125.52 59.9059C126.088 60.4157 127.078 60.9109 127.486 60.9254C127.646 60.9254 127.894 61.275 128.2 61.9013C128.797 63.1538 129.86 64.2898 130.836 64.7122C131.899 65.1783 133.865 65.0909 135.06 64.5374C135.686 64.2461 135.875 64.0859 135.817 63.9257C135.759 63.7946 135.89 63.5034 136.123 63.2412C137.434 61.6682 138.424 58.4786 139.618 51.9538C140.754 45.7639 142.298 39.1225 144.585 30.4858C145.765 26.0728 146.216 24.6455 147.177 22.3297C147.847 20.6839 147.92 20.4072 147.92 19.4023C147.92 18.4264 147.876 18.2371 147.512 17.771C146.886 16.9554 145.954 16.4748 144.818 16.3874L143.842 16.3292V15.266C143.842 14.2901 143.798 14.1591 143.391 13.6348C142.925 13.0522 141.672 12.3385 140.929 12.2366C140.696 12.1929 140.23 12.222 139.91 12.2803ZM141.687 13.46C142.429 13.8095 143.041 14.6397 143.041 15.2514C143.041 15.4844 142.648 16.6496 142.167 17.8293C141.031 20.6402 140.551 22.2423 138.817 29.0876C136.968 36.399 136.021 40.5498 134.594 47.6718C133.967 50.8323 133.239 54.0802 132.992 54.8812C132.394 56.862 131.623 58.4204 131.084 58.7262C130.821 58.8719 130.661 59.0758 130.661 59.2797C130.661 59.702 129.875 59.9642 128.549 59.9788C126.132 59.9933 124.952 58.5514 124.02 54.4297C123.729 53.1626 123.277 51.3421 123 50.3808C122.534 48.7205 122.025 46.3319 121.122 41.6276C120.743 39.6031 119.068 31.7675 118.34 28.607C118.136 27.6894 117.51 25.33 116.942 23.3638C115.747 19.0964 115.223 16.9409 115.223 16.1253C115.223 15.4116 115.66 14.698 116.374 14.2173C117.99 13.125 119.549 13.6493 120.597 15.6155C121.194 16.7515 121.355 17.305 122.054 20.8004C122.374 22.4025 122.84 24.4124 123.073 25.2572C124.559 30.5295 126.103 37.4476 127.457 44.9046C127.952 47.5844 128.36 49.8419 128.389 49.9293C128.404 50.0021 128.549 49.5506 128.681 48.9098C129.554 44.89 131.273 37.3748 132.147 33.7628C132.7 31.4325 133.443 28.1992 133.807 26.5534C134.972 21.1791 136.021 17.64 136.88 16.0379C137.434 15.0038 138.628 13.7513 139.327 13.4308C140.099 13.0667 140.915 13.0813 141.687 13.46Z" fill="#973240"/>
<path d="M163.14 12.2948C159.79 12.6735 158.144 14.2173 158.639 16.5185C158.931 17.8584 159.95 18.674 161.742 18.9799L162.703 19.1547V19.9266C162.703 20.8733 162.892 21.3976 163.402 21.9365C164.116 22.6938 165.543 23.2036 166.956 23.2036H167.538L167.451 26.2912C167.393 27.9953 167.247 32.4666 167.116 36.2387C166.985 39.9964 166.868 46.128 166.868 49.8565C166.854 56.0464 166.883 56.7163 167.13 57.6485C167.757 59.9788 168.732 60.9254 170.509 60.9254C171.106 60.9254 171.121 60.9254 171.208 61.5517C171.34 62.3965 172.039 63.8238 172.548 64.3044C174.15 65.8045 177.005 64.7996 177.69 62.513C177.908 61.7702 177.893 59.571 177.617 56.0318C177.325 52.3324 177.398 48.269 177.923 36.7485C178.112 32.3792 178.316 27.5875 178.374 26.1019L178.462 23.3929L180.53 23.291C185.627 23.0288 187.608 22.0093 187.608 19.679C187.608 18.7177 187.229 17.873 186.545 17.2759C185.977 16.7807 184.812 16.3583 184.011 16.3583C183.53 16.3583 183.53 16.3583 183.53 15.6301C183.53 14.7271 183.224 13.9697 182.612 13.3289C181.607 12.2657 180.748 12.0764 178.301 12.3676C176.481 12.5861 175.068 12.5715 165.761 12.222C164.917 12.1929 163.737 12.222 163.14 12.2948ZM175.01 13.3726C176.539 13.3726 178.316 13.3143 178.957 13.2415C180.501 13.0813 181.083 13.1978 181.782 13.8241C183.282 15.1786 182.758 16.9846 180.704 17.6545C179.335 18.106 178.127 18.2517 175.651 18.2517H173.379L173.291 22.5045C173.233 24.8494 173.058 29.5245 172.883 32.8889C172.505 40.3168 172.432 49.7108 172.738 54.2986C172.971 57.8524 172.898 58.333 172.039 59.1923C171.15 60.0807 169.868 60.2264 169.082 59.5127C168.66 59.134 168.15 58.0708 167.931 57.0659C167.655 55.857 167.698 45.1085 168.004 37.4039C168.296 30.4712 168.47 19.7664 168.325 18.8051L168.223 18.106L164.917 18.1352C161.727 18.1643 161.567 18.1497 160.911 17.8293C159.062 16.9263 159.018 14.7999 160.824 13.8823C162.149 13.1978 162.746 13.1541 167.655 13.2561C170.174 13.3143 173.495 13.3726 175.01 13.3726Z" fill="#973240"/>
</svg>
