<svg width="32" height="12" viewBox="0 0 32 12" fill="none" xmlns="http://www.w3.org/2000/svg">
<path d="M0.130413 6.70537C0.391995 5.46762 1.37293 4.51353 1.8307 4.1912C3.92336 2.64405 7.29122 1.8704 8.69723 2.25723C10.1032 2.64405 8.56644 3.41758 7.22583 4.19117C5.88522 4.96476 6.86615 5.35155 8.07597 4.96476C9.28579 4.57796 11.8035 4.19117 13.9616 3.99777C16.1196 3.80437 13.9289 3.41758 11.8035 3.41758C9.67816 3.41758 9.71086 2.64402 10.4629 2.25723C11.215 1.87043 12.9152 0.323255 14.9098 0.516652C16.9044 0.710049 21.6129 1.09684 23.6401 2.45063C25.6674 3.80441 29.8527 7.47896 30.8663 8.63934C31.88 9.79972 31.7492 13.0875 29.9508 11.1535C28.1524 9.21953 24.4249 5.73838 16.2504 5.15819C8.07597 4.578 1.86339 7.86575 1.20944 9.21953C0.555479 10.5733 0.0977102 10.5733 0.359293 9.41293C0.620875 8.25255 0.686275 8.05915 0.424693 8.44594C0.163111 8.83274 -0.196565 8.25255 0.130413 6.70537Z" fill="#973240"/>
</svg>
